<?xml version="1.0" encoding="utf-8"?>
<svg viewBox="0 0 500 500" xmlns="http://www.w3.org/2000/svg">
  <rect width="500" height="500" style="fill: rgb(254, 109, 78);" rx="250" ry="250"/>
  <path d="M 385.367 331.994 C 385.367 378.804 365.732 422.69 335.119 453.305 C 304.504 483.918 260.618 503.553 213.808 503.553 C 166.997 503.553 123.111 483.918 92.497 453.305 C 61.883 422.69 42.248 378.804 42.248 331.994 C 42.248 285.183 61.883 241.297 92.497 210.683 C 123.111 180.069 166.997 160.434 213.808 160.434 C 224.84 160.434 235.709 161.525 246.28 163.592 L 241.315 178.491 C 232.435 176.949 223.254 176.15 213.808 176.15 C 170.208 176.15 132.243 193.162 103.61 221.796 C 74.976 250.429 57.964 288.394 57.964 331.994 C 57.964 375.593 74.976 413.558 103.61 442.192 C 132.243 470.826 170.208 487.837 213.808 487.837 C 257.407 487.837 295.372 470.826 324.006 442.192 C 352.64 413.558 369.651 375.593 369.651 331.994 C 369.651 322.548 368.853 313.366 367.311 304.487 L 382.209 299.522 C 384.276 310.093 385.367 320.962 385.367 331.994 Z M 335.119 210.683 C 358.518 234.082 375.503 265.235 382.209 299.522 L 570.554 238.053 L 314.151 -18.35 L 246.28 163.592 C 280.566 170.299 311.719 187.284 335.119 210.683 Z M 324.006 221.796 C 301.576 199.365 273.42 184.067 241.315 178.491 L 178.316 367.486 L 367.311 304.487 C 361.735 272.382 346.436 244.225 324.006 221.796 Z" style="fill: rgb(6, 49, 74);" transform="matrix(0.707107007504, 0.707107007504, -0.707107007504, 0.707107007504, 264.886504795089, -132.386733613111)"/>
  <path d="M 338.119 253.553 C 338.119 340.153 267.916 410.355 181.316 410.355 C 94.717 410.355 24.514 340.153 24.514 253.553 C 24.514 166.953 94.717 96.751 181.316 96.751 C 267.916 96.751 338.119 166.953 338.119 253.553 Z" style="stroke-miterlimit: 4.24; stroke-dashoffset: -8px; stroke-width: 24px; transform-box: fill-box; transform-origin: 50% 50%; fill: rgb(101, 222, 242);" transform="matrix(0.707107, 0.707107, -0.707107, 0.707107, 0, -0.000017)"/>
  <path d="M 306.314 253.558 C 306.314 322.595 250.351 378.558 181.314 378.558 C 112.276 378.558 56.314 322.595 56.314 253.558 C 56.314 184.521 112.276 128.557 181.314 128.557 C 250.351 128.557 306.314 184.521 306.314 253.558 Z" style="stroke-miterlimit: 4.24; stroke-dashoffset: -8px; stroke-width: 24px; transform-origin: 181.32px 253.558px; fill: rgb(255, 255, 255);" transform="matrix(0.707107, 0.707107, -0.707107, 0.707107, 0.000003, 0.000004)"/>
</svg>